<?xml version="1.0" encoding="UTF-8"?>
<svg xmlns="http://www.w3.org/2000/svg" xmlns:xlink="http://www.w3.org/1999/xlink" width="50pt" height="50pt" viewBox="0 0 50 50" version="1.1">
<g id="surface1">
<path style=" stroke:none;fill-rule:nonzero;fill:rgb(78.039216%,83.529412%,87.843137%);fill-opacity:1;" d="M 47.742188 37.695312 L 47.742188 10.460938 C 47.742188 9.171875 46.695312 8.125 45.40625 8.125 L 4.59375 8.125 C 3.304688 8.125 2.257812 9.171875 2.257812 10.464844 L 2.257812 37.695312 L 0.503906 37.695312 C 0.226562 37.695312 0 37.921875 0 38.199219 L 0 38.59375 C 0 40.40625 1.46875 41.875 3.277344 41.875 L 46.722656 41.875 C 48.53125 41.875 50 40.40625 50 38.59375 L 50 38.199219 C 50 37.921875 49.773438 37.695312 49.496094 37.695312 Z M 47.742188 37.695312 "/>
<path style=" stroke:none;fill-rule:nonzero;fill:rgb(58.431373%,65.490196%,75.686275%);fill-opacity:1;" d="M 50 38.199219 L 50 38.59375 C 50 40.40625 48.53125 41.875 46.722656 41.875 L 39.925781 41.875 L 39.925781 37.695312 L 49.496094 37.695312 C 49.773438 37.695312 50 37.921875 50 38.199219 Z M 50 38.199219 "/>
<path style=" stroke:none;fill-rule:nonzero;fill:rgb(41.176471%,84.313725%,87.843137%);fill-opacity:1;" d="M 45.011719 34.859375 L 4.988281 34.859375 L 4.988281 12.527344 C 4.988281 11.714844 5.648438 11.058594 6.460938 11.058594 L 43.539062 11.058594 C 44.351562 11.058594 45.011719 11.714844 45.011719 12.527344 Z M 45.011719 34.859375 "/>
<path style=" stroke:none;fill-rule:nonzero;fill:rgb(14.117647%,79.215686%,80.784314%);fill-opacity:1;" d="M 45.011719 12.527344 L 45.011719 34.859375 L 39.742188 34.859375 L 39.742188 12.527344 C 39.742188 11.714844 39.082031 11.058594 38.269531 11.058594 L 43.539062 11.058594 C 44.351562 11.058594 45.011719 11.714844 45.011719 12.527344 Z M 45.011719 12.527344 "/>
<path style=" stroke:none;fill-rule:nonzero;fill:rgb(96.078431%,83.921569%,27.843137%);fill-opacity:1;" d="M 30.058594 39.785156 L 19.941406 39.785156 C 19.664062 39.785156 19.441406 39.558594 19.441406 39.28125 L 19.441406 37.695312 L 30.558594 37.695312 L 30.558594 39.28125 C 30.558594 39.558594 30.335938 39.785156 30.058594 39.785156 Z M 30.058594 39.785156 "/>
</g>
</svg>
