<?xml version="1.0" encoding="UTF-8"?>
<svg xmlns="http://www.w3.org/2000/svg" xmlns:xlink="http://www.w3.org/1999/xlink" width="50pt" height="50pt" viewBox="0 0 50 50" version="1.1">
<g id="surface1">
<path style=" stroke:none;fill-rule:nonzero;fill:rgb(70.196078%,89.803922%,62.352941%);fill-opacity:1;" d="M 6.6875 45.96875 L 6.6875 3.664062 C 6.6875 2.042969 8 0.734375 9.617188 0.734375 L 41.84375 0.734375 C 42.65625 0.734375 43.3125 1.386719 43.3125 2.195312 L 43.3125 43.40625 Z M 6.6875 45.96875 "/>
<path style=" stroke:none;fill-rule:nonzero;fill:rgb(58.431373%,83.921569%,64.313725%);fill-opacity:1;" d="M 41.84375 0.734375 L 38.914062 0.734375 C 39.726562 0.734375 40.382812 1.386719 40.382812 2.195312 L 40.382812 43.40625 L 43.3125 43.40625 L 43.3125 2.195312 C 43.3125 1.386719 42.65625 0.734375 41.84375 0.734375 Z M 41.84375 0.734375 "/>
<path style=" stroke:none;fill-rule:nonzero;fill:rgb(39.607843%,36.862745%,40.392157%);fill-opacity:1;" d="M 9.617188 0.734375 C 8 0.734375 6.6875 2.042969 6.6875 3.664062 L 6.6875 45.96875 L 13.109375 45.785156 L 13.109375 0.730469 Z M 9.617188 0.734375 "/>
<path style=" stroke:none;fill-rule:nonzero;fill:rgb(96.862745%,96.470588%,96.862745%);fill-opacity:1;" d="M 41.84375 49.265625 L 9.988281 49.265625 C 8.167969 49.265625 6.6875 47.789062 6.6875 45.96875 C 6.6875 44.148438 8.167969 42.671875 9.988281 42.671875 L 43.3125 42.671875 L 43.3125 47.804688 C 43.3125 48.613281 42.65625 49.265625 41.84375 49.265625 Z M 41.84375 49.265625 "/>
<path style=" stroke:none;fill-rule:nonzero;fill:rgb(88.627451%,87.45098%,89.019608%);fill-opacity:1;" d="M 40.382812 42.671875 L 40.382812 47.804688 C 40.382812 48.613281 39.726562 49.265625 38.914062 49.265625 L 41.84375 49.265625 C 42.65625 49.265625 43.3125 48.613281 43.3125 47.804688 L 43.3125 42.671875 Z M 40.382812 42.671875 "/>
<path style=" stroke:none;fill-rule:nonzero;fill:rgb(96.862745%,96.470588%,96.862745%);fill-opacity:1;" d="M 36.851562 15.109375 C 36.851562 19.882812 32.984375 23.753906 28.210938 23.753906 C 23.4375 23.753906 19.566406 19.882812 19.566406 15.109375 C 19.566406 10.335938 23.4375 6.46875 28.210938 6.46875 C 32.984375 6.46875 36.851562 10.335938 36.851562 15.109375 Z M 36.851562 15.109375 "/>
<path style=" stroke:none;fill-rule:nonzero;fill:rgb(92.941176%,92.156863%,92.941176%);fill-opacity:1;" d="M 28.210938 6.46875 C 27.710938 6.46875 27.222656 6.511719 26.746094 6.59375 C 30.816406 7.289062 33.921875 10.84375 33.921875 15.109375 C 33.921875 19.375 30.816406 22.929688 26.746094 23.628906 C 27.222656 23.710938 27.710938 23.753906 28.210938 23.753906 C 32.976562 23.753906 36.851562 19.875 36.851562 15.109375 C 36.851562 10.34375 32.976562 6.46875 28.210938 6.46875 Z M 28.210938 6.46875 "/>
<path style=" stroke:none;fill-rule:nonzero;fill:rgb(86.666667%,38.823529%,43.137255%);fill-opacity:1;" d="M 33.335938 13.644531 L 29.96875 13.644531 C 29.804688 13.644531 29.675781 13.515625 29.675781 13.351562 L 29.675781 9.984375 C 29.675781 9.660156 29.414062 9.398438 29.089844 9.398438 L 27.332031 9.398438 C 27.007812 9.398438 26.746094 9.660156 26.746094 9.984375 L 26.746094 13.351562 C 26.746094 13.515625 26.613281 13.644531 26.453125 13.644531 L 23.082031 13.644531 C 22.757812 13.644531 22.496094 13.90625 22.496094 14.230469 L 22.496094 15.988281 C 22.496094 16.3125 22.757812 16.574219 23.082031 16.574219 L 26.453125 16.574219 C 26.613281 16.574219 26.746094 16.707031 26.746094 16.867188 L 26.746094 20.238281 C 26.746094 20.558594 27.007812 20.824219 27.332031 20.824219 L 29.089844 20.824219 C 29.414062 20.824219 29.675781 20.558594 29.675781 20.238281 L 29.675781 16.867188 C 29.675781 16.707031 29.804688 16.574219 29.96875 16.574219 L 33.335938 16.574219 C 33.660156 16.574219 33.921875 16.3125 33.921875 15.988281 L 33.921875 14.230469 C 33.921875 13.90625 33.660156 13.644531 33.335938 13.644531 Z M 33.335938 13.644531 "/>
<path style=" stroke:none;fill-rule:nonzero;fill:rgb(0%,0%,0%);fill-opacity:1;" d="M 29.089844 8.664062 L 27.332031 8.664062 C 26.605469 8.664062 26.011719 9.257812 26.011719 9.984375 L 26.011719 12.914062 L 23.082031 12.914062 C 22.355469 12.914062 21.765625 13.503906 21.765625 14.230469 L 21.765625 15.988281 C 21.765625 16.714844 22.355469 17.308594 23.082031 17.308594 L 26.011719 17.308594 L 26.011719 20.238281 C 26.011719 20.964844 26.605469 21.554688 27.332031 21.554688 L 29.089844 21.554688 C 29.816406 21.554688 30.40625 20.964844 30.40625 20.238281 L 30.40625 17.308594 L 33.335938 17.308594 C 34.0625 17.308594 34.65625 16.714844 34.65625 15.988281 L 34.65625 14.230469 C 34.65625 13.503906 34.0625 12.914062 33.335938 12.914062 L 30.40625 12.914062 L 30.40625 9.984375 C 30.40625 9.253906 29.816406 8.664062 29.089844 8.664062 Z M 33.191406 14.378906 L 33.191406 15.84375 L 29.96875 15.84375 C 29.402344 15.84375 28.941406 16.300781 28.941406 16.867188 L 28.941406 20.089844 L 27.476562 20.089844 L 27.476562 16.867188 C 27.476562 16.300781 27.015625 15.84375 26.453125 15.84375 L 23.230469 15.84375 L 23.230469 14.378906 L 26.453125 14.378906 C 27.015625 14.378906 27.476562 13.917969 27.476562 13.351562 L 27.476562 10.128906 L 28.941406 10.128906 L 28.941406 13.351562 C 28.941406 13.917969 29.402344 14.378906 29.96875 14.378906 Z M 43.3125 35.714844 C 43.714844 35.714844 44.042969 35.386719 44.042969 34.984375 L 44.042969 2.195312 C 44.042969 0.984375 43.058594 0 41.84375 0 L 9.617188 0 C 7.601562 0 5.957031 1.644531 5.957031 3.664062 L 5.957031 45.945312 C 5.957031 45.949219 5.957031 45.949219 5.957031 45.953125 C 5.957031 45.957031 5.957031 45.964844 5.957031 45.96875 C 5.957031 48.191406 7.765625 50 9.988281 50 L 41.84375 50 C 43.058594 50 44.042969 49.015625 44.042969 47.804688 L 44.042969 38.402344 C 44.042969 37.996094 43.714844 37.667969 43.3125 37.667969 C 42.90625 37.667969 42.578125 37.996094 42.578125 38.402344 L 42.578125 41.9375 L 13.839844 41.9375 L 13.839844 1.464844 L 41.84375 1.464844 C 42.25 1.464844 42.578125 1.792969 42.578125 2.195312 L 42.578125 34.984375 C 42.578125 35.386719 42.90625 35.714844 43.3125 35.714844 Z M 7.421875 3.664062 C 7.421875 2.449219 8.40625 1.464844 9.617188 1.464844 L 12.375 1.464844 L 12.375 41.9375 L 9.988281 41.9375 C 9.015625 41.9375 8.121094 42.285156 7.421875 42.863281 Z M 42.578125 43.402344 L 42.578125 47.804688 C 42.578125 48.207031 42.25 48.535156 41.84375 48.535156 L 9.988281 48.535156 C 8.574219 48.535156 7.421875 47.382812 7.421875 45.96875 C 7.421875 44.554688 8.574219 43.402344 9.988281 43.402344 Z M 21.53125 9.578125 C 21.199219 9.347656 20.746094 9.429688 20.511719 9.761719 C 19.414062 11.339844 18.835938 13.1875 18.835938 15.109375 C 18.835938 20.277344 23.039062 24.484375 28.210938 24.484375 C 33.378906 24.484375 37.585938 20.277344 37.585938 15.109375 C 37.585938 9.941406 33.378906 5.734375 28.210938 5.734375 C 26.421875 5.734375 24.679688 6.242188 23.175781 7.203125 C 22.835938 7.421875 22.734375 7.875 22.953125 8.214844 C 23.171875 8.554688 23.621094 8.65625 23.964844 8.4375 C 25.234375 7.628906 26.699219 7.199219 28.210938 7.199219 C 32.570312 7.199219 36.121094 10.746094 36.121094 15.109375 C 36.121094 19.472656 32.570312 23.019531 28.210938 23.019531 C 23.847656 23.019531 20.300781 19.472656 20.300781 15.109375 C 20.300781 13.488281 20.789062 11.929688 21.714844 10.597656 C 21.945312 10.269531 21.863281 9.8125 21.53125 9.578125 Z M 17.503906 36.203125 C 17.097656 36.203125 16.769531 36.53125 16.769531 36.9375 C 16.769531 37.339844 17.097656 37.667969 17.503906 37.667969 L 34.523438 37.667969 C 34.925781 37.667969 35.253906 37.339844 35.253906 36.9375 C 35.253906 36.53125 34.925781 36.203125 34.523438 36.203125 Z M 38.914062 27.414062 L 17.503906 27.414062 C 17.097656 27.414062 16.769531 27.742188 16.769531 28.148438 C 16.769531 28.550781 17.097656 28.878906 17.503906 28.878906 L 38.914062 28.878906 C 39.320312 28.878906 39.648438 28.550781 39.648438 28.148438 C 39.648438 27.742188 39.320312 27.414062 38.914062 27.414062 Z M 39.648438 32.542969 C 39.648438 32.136719 39.320312 31.808594 38.914062 31.808594 L 17.503906 31.808594 C 17.097656 31.808594 16.769531 32.136719 16.769531 32.542969 C 16.769531 32.945312 17.097656 33.273438 17.503906 33.273438 L 38.914062 33.273438 C 39.320312 33.273438 39.648438 32.945312 39.648438 32.542969 Z M 39.648438 32.542969 "/>
</g>
</svg>
