<?xml version="1.0" encoding="UTF-8"?>
<svg xmlns="http://www.w3.org/2000/svg" xmlns:xlink="http://www.w3.org/1999/xlink" width="50pt" height="50pt" viewBox="0 0 50 50" version="1.1">
<g id="surface1">
<path style=" stroke:none;fill-rule:nonzero;fill:rgb(0%,0%,0%);fill-opacity:1;" d="M 25 21.875 C 17.246094 21.875 6.25 33.863281 6.25 41.429688 C 6.25 44.839844 8.867188 46.875 13.257812 46.875 C 18.023438 46.875 21.175781 44.425781 25 44.425781 C 28.859375 44.425781 32.015625 46.875 36.742188 46.875 C 41.132812 46.875 43.75 44.839844 43.75 41.429688 C 43.75 33.863281 32.753906 21.875 25 21.875 Z M 10.617188 20.644531 C 9.601562 17.257812 6.472656 15.066406 3.628906 15.75 C 0.785156 16.429688 -0.695312 19.722656 0.320312 23.105469 C 1.335938 26.488281 4.464844 28.679688 7.308594 28 C 10.152344 27.320312 11.632812 24.027344 10.617188 20.644531 Z M 18.890625 18.613281 C 21.914062 17.820312 23.421875 13.738281 22.265625 9.496094 C 21.109375 5.257812 17.722656 2.464844 14.703125 3.257812 C 11.679688 4.054688 10.167969 8.136719 11.324219 12.375 C 12.480469 16.617188 15.871094 19.410156 18.890625 18.613281 Z M 46.371094 15.75 C 43.527344 15.070312 40.398438 17.261719 39.382812 20.644531 C 38.367188 24.027344 39.847656 27.320312 42.691406 28 C 45.535156 28.679688 48.664062 26.492188 49.679688 23.105469 C 50.695312 19.722656 49.214844 16.429688 46.371094 15.75 Z M 31.109375 18.613281 C 34.132812 19.410156 37.515625 16.617188 38.671875 12.375 C 39.828125 8.136719 38.320312 4.054688 35.296875 3.257812 C 32.273438 2.464844 28.890625 5.257812 27.734375 9.496094 C 26.578125 13.738281 28.085938 17.820312 31.109375 18.613281 Z M 31.109375 18.613281 "/>
</g>
</svg>
