<?xml version="1.0" encoding="UTF-8"?>
<svg xmlns="http://www.w3.org/2000/svg" xmlns:xlink="http://www.w3.org/1999/xlink" width="66pt" height="50pt" viewBox="0 0 66 50" version="1.1">
<g id="surface1">
<path style=" stroke:none;fill-rule:nonzero;fill:rgb(76.862745%,12.54902%,12.941176%);fill-opacity:1;" d="M 31.722656 25 L 41.355469 15.226562 C 42.535156 14.027344 42.535156 12.085938 41.355469 10.882812 L 39.214844 8.710938 C 38.03125 7.511719 36.113281 7.511719 34.933594 8.710938 L 25.300781 18.484375 L 15.667969 8.710938 C 14.484375 7.511719 12.570312 7.511719 11.386719 8.710938 L 9.246094 10.882812 C 8.0625 12.082031 8.0625 14.027344 9.246094 15.226562 L 18.878906 25 L 9.246094 34.773438 C 8.0625 35.972656 8.0625 37.914062 9.246094 39.117188 L 11.386719 41.289062 C 12.566406 42.488281 14.484375 42.488281 15.667969 41.289062 L 25.300781 31.515625 L 34.933594 41.289062 C 36.113281 42.488281 38.03125 42.488281 39.214844 41.289062 L 41.355469 39.117188 C 42.535156 37.917969 42.535156 35.972656 41.355469 34.773438 Z M 31.722656 25 "/>
</g>
</svg>
