<?xml version="1.0" encoding="UTF-8"?>
<svg xmlns="http://www.w3.org/2000/svg" xmlns:xlink="http://www.w3.org/1999/xlink" width="48pt" height="49pt" viewBox="0 0 48 49" version="1.1">
<g id="surface1">
<path style=" stroke:none;fill-rule:nonzero;fill:rgb(0%,0%,0%);fill-opacity:1;" d="M 24 0.765625 C 10.742188 0.765625 0 11.390625 0 24.5 C 0 37.609375 10.742188 48.234375 24 48.234375 C 37.257812 48.234375 48 37.609375 48 24.5 C 48 11.390625 37.257812 0.765625 24 0.765625 Z M 24 9.953125 C 28.703125 9.953125 32.515625 13.722656 32.515625 18.375 C 32.515625 23.027344 28.703125 26.796875 24 26.796875 C 19.296875 26.796875 15.484375 23.027344 15.484375 18.375 C 15.484375 13.722656 19.296875 9.953125 24 9.953125 Z M 24 42.875 C 18.320312 42.875 13.230469 40.328125 9.824219 36.347656 C 11.640625 32.960938 15.203125 30.625 19.355469 30.625 C 19.585938 30.625 19.820312 30.664062 20.042969 30.730469 C 21.300781 31.132812 22.617188 31.390625 24 31.390625 C 25.382812 31.390625 26.710938 31.132812 27.957031 30.730469 C 28.179688 30.664062 28.414062 30.625 28.644531 30.625 C 32.796875 30.625 36.359375 32.960938 38.175781 36.347656 C 34.769531 40.328125 29.679688 42.875 24 42.875 Z M 24 42.875 "/>
</g>
</svg>
